# Blender v2.77 (sub 0) OBJ File: 'field_border.blend'
# www.blender.org
mtllib field.mtl
o Curve_Mesh
v -4.355230 -0.000192 -2.500000
v 4.355230 -0.000192 -2.500000
v 4.503363 -0.000192 -2.485395
v 4.626869 -0.000192 -2.445015
v 4.727987 -0.000192 -2.384016
v 4.808957 -0.000192 -2.307552
v 4.872016 -0.000192 -2.220779
v 4.919404 -0.000192 -2.128850
v 4.953359 -0.000192 -2.036922
v 4.976120 -0.000192 -1.950149
v 4.989926 -0.000192 -1.873685
v 5.000000 0.500192 -1.757701
v 4.503363 0.500192 -2.485395
v 5.000000 -0.000192 -1.757701
v 5.000000 -0.000192 1.757701
v 4.987314 -0.000192 1.928241
v 4.952239 -0.000192 2.070429
v 4.899254 -0.000192 2.186843
v 4.832837 -0.000192 2.280060
v 4.757464 -0.000192 2.352657
v 4.677614 -0.000192 2.407212
v 4.597764 -0.000192 2.446304
v 4.522392 -0.000192 2.472507
v 4.367915 0.500192 2.499570
v 4.402990 -0.000192 2.496563
v 4.367915 -0.000192 2.499570
v 4.355230 -0.000192 2.500000
v -4.355230 -0.000192 2.500000
v -4.503363 -0.000192 2.485395
v -4.626869 -0.000192 2.445015
v -4.727987 -0.000192 2.384016
v -4.808957 -0.000192 2.307552
v -4.872016 -0.000192 2.220779
v -4.919404 -0.000192 2.128850
v -4.953359 -0.000192 2.036922
v -4.976120 -0.000192 1.950149
v -4.989926 -0.000192 1.873685
v 4.355230 0.500192 2.500000
v 5.000000 0.500192 -1.757701
v -5.000000 -0.000192 1.757701
v -5.000000 -0.000192 -1.757701
v -4.987314 -0.000192 -1.928241
v -4.952239 -0.000192 -2.070429
v -4.899254 -0.000192 -2.186843
v -4.832837 -0.000192 -2.280060
v -4.757464 -0.000192 -2.352657
v -4.677614 -0.000192 -2.407212
v -4.597764 -0.000192 -2.446304
v -4.522392 -0.000192 -2.472507
v 4.626869 0.500192 -2.445015
v -4.402990 -0.000192 -2.496563
v -4.367915 -0.000192 -2.499570
v 5.000000 -0.000192 -1.757701
v -5.000000 -0.000192 1.757701
v -5.000000 -0.000192 -1.757701
v 5.000000 -0.000192 1.757701
v -4.952239 0.500192 -2.070429
v -4.899254 0.500192 -2.186843
v 4.402990 0.500192 2.496563
v -4.355230 0.500192 2.500000
v 4.522392 0.500192 2.472507
v -4.872016 0.500192 2.220779
v -4.919404 0.500192 2.128850
v 4.727987 0.500192 -2.384016
v -4.976120 0.500192 1.950149
v -4.989926 0.500192 1.873685
v 4.976120 0.500192 -1.950149
v 4.989926 0.500192 -1.873685
v -4.987314 0.500192 -1.928241
v 4.808957 0.500192 -2.307552
v -4.727987 0.500192 2.384016
v -4.808957 0.500192 2.307552
v -4.367915 0.500192 -2.499570
v -4.402990 0.500192 -2.496563
v 4.597764 0.500192 2.446304
v -4.953359 0.500192 2.036922
v 4.952239 0.500192 2.070429
v 4.899254 0.500192 2.186843
v 5.000000 0.500192 1.757701
v 4.987314 0.500192 1.928241
v -4.832837 0.500192 -2.280060
v -4.757464 0.500192 -2.352657
v 4.355230 0.500192 -2.500000
v -5.000000 0.500192 -1.757701
v 4.872016 0.500192 -2.220779
v 4.919404 0.500192 -2.128850
v 4.832837 0.500192 2.280060
v 4.757464 0.500192 2.352657
v -4.626869 0.500192 2.445015
v -4.597764 0.500192 -2.446304
v -4.522392 0.500192 -2.472507
v 4.953359 0.500192 -2.036922
v -5.000000 0.500192 1.757701
v 4.677614 0.500192 2.407212
v -4.677614 0.500192 -2.407212
v -4.355230 0.500192 -2.500000
v -4.503363 0.500192 2.485395
v -5.000000 0.500192 -1.757701
v -5.000000 0.500192 1.757701
v 5.000000 0.500192 1.757701
vn 0.0000 -1.0000 0.0000
vn -0.4397 0.0000 -0.8981
vn 0.0981 0.0000 -0.9952
vn -0.9102 0.0000 -0.4143
vn -0.9673 0.0000 0.2537
vn -0.6937 0.0000 -0.7202
vn 0.6937 0.0000 0.7202
vn 0.9709 0.0000 0.2395
vn 0.3108 0.0000 -0.9505
vn 0.3284 0.0000 0.9445
vn 0.9841 0.0000 -0.1777
vn -0.3108 0.0000 0.9505
vn -0.8144 0.0000 -0.5803
vn 0.8090 0.0000 -0.5879
vn 0.9962 0.0000 -0.0865
vn 0.5641 0.0000 0.8257
vn -0.9841 0.0000 0.1777
vn 0.0854 0.0000 0.9963
vn 0.5165 0.0000 -0.8563
vn 0.8144 0.0000 0.5803
vn 0.0000 0.0000 1.0000
vn 0.0000 1.0000 0.0000
vn -0.8090 0.0000 0.5879
vn 0.0000 1.0000 0.0001
vn 0.9972 0.0000 0.0742
vn -0.0854 0.0000 -0.9963
vn -1.0000 0.0000 0.0000
vn -0.0981 0.0000 0.9952
vn 0.8889 0.0000 -0.4582
vn -0.1975 0.0000 -0.9803
vn -0.5641 0.0000 -0.8257
vn -0.0338 0.0000 -0.9994
vn 0.9381 0.0000 -0.3465
vn 0.0338 0.0000 0.9994
vn 0.4397 0.0000 0.8981
vn -0.5165 0.0000 0.8563
vn -0.9962 0.0000 0.0865
vn -0.3284 0.0000 -0.9445
vn 0.0000 0.0000 -1.0000
vn -0.9709 0.0000 -0.2395
vn 1.0000 0.0000 0.0000
vn -0.9381 0.0000 0.3465
vn 0.1975 0.0000 0.9803
vn 0.9102 0.0000 0.4143
vn 0.9673 0.0000 -0.2537
vn -0.9972 0.0000 -0.0742
vn 0.6866 0.0000 -0.7270
vn -0.8889 0.0000 0.4582
vn -0.6866 0.0000 0.7270
usemtl field
s off
f 52//1 1//1 2//1
f 52//1 2//1 3//1
f 51//1 52//1 3//1
f 48//2 47//2 95//2 90//2
f 3//3 2//3 83//3 13//3
f 44//4 43//4 57//4 58//4
f 36//5 35//5 76//5 65//5
f 46//6 45//6 81//6 82//6
f 20//7 19//7 87//7 88//7
f 17//8 16//8 80//8 77//8
f 9//1 10//1 11//1 14//1 41//1 42//1 43//1 44//1 45//1 46//1 47//1 48//1 49//1 51//1 3//1 4//1 5//1 6//1 7//1 8//1
f 4//9 3//9 13//9 50//9
f 23//10 22//10 75//10 61//10
f 11//11 10//11 67//11 68//11
f 30//12 29//12 97//12 89//12
f 45//13 44//13 58//13 81//13
f 7//14 6//14 70//14 85//14
f 14//15 11//15 68//15 39//15
f 54//1 55//1 53//1 56//1
f 21//16 20//16 88//16 94//16
f 37//17 36//17 65//17 66//17
f 26//18 25//18 59//18 24//18
f 5//19 4//19 50//19 64//19
f 19//20 18//20 78//20 87//20
f 41//21 55//21 54//21 40//21
f 15//21 56//21 53//21 14//21
f 73//22 83//22 96//22
f 21//1 22//1 23//1 25//1 28//1 29//1 30//1 31//1 32//1 33//1 34//1 35//1 36//1 37//1 40//1 15//1 16//1 17//1 18//1 19//1 20//1
f 93//21 79//21 100//21 99//21
f 33//23 32//23 72//23 62//23
f 99//22 100//22 12//22 98//22
f 60//24 38//24 24//24
f 39//21 84//21 98//21 12//21
f 94//22 88//22 87//22 78//22 77//22 80//22 79//22 93//22 66//22 65//22 76//22 63//22 62//22 72//22 71//22 89//22 97//22 60//22 59//22 61//22 75//22
f 16//25 15//25 79//25 80//25
f 73//22 13//22 83//22
f 84//21 93//21 99//21 98//21
f 52//26 51//26 74//26 73//26
f 41//27 40//27 93//27 84//27
f 79//21 39//21 12//21 100//21
f 74//22 13//22 73//22
f 29//28 28//28 60//28 97//28
f 92//22 86//22 85//22 70//22 64//22 50//22 13//22 74//22 91//22 90//22 95//22 82//22 81//22 58//22 57//22 69//22 84//22 39//22 68//22 67//22
f 60//22 24//22 59//22
f 8//29 7//29 85//29 86//29
f 51//30 49//30 91//30 74//30
f 47//31 46//31 82//31 95//31
f 1//32 52//32 73//32 96//32
f 28//1 25//1 26//1
f 28//1 26//1 27//1
f 9//33 8//33 86//33 92//33
f 27//34 26//34 24//34 38//34
f 14//21 53//21 55//21 41//21
f 40//21 54//21 56//21 15//21
f 22//35 21//35 94//35 75//35
f 31//36 30//36 89//36 71//36
f 40//37 37//37 66//37 93//37
f 49//38 48//38 90//38 91//38
f 2//39 1//39 96//39 83//39
f 43//40 42//40 69//40 57//40
f 15//41 14//41 39//41 79//41
f 35//42 34//42 63//42 76//42
f 25//43 23//43 61//43 59//43
f 18//44 17//44 77//44 78//44
f 10//45 9//45 92//45 67//45
f 42//46 41//46 84//46 69//46
f 6//47 5//47 64//47 70//47
f 34//48 33//48 62//48 63//48
f 28//21 27//21 38//21 60//21
f 32//49 31//49 71//49 72//49
