# Blender v2.77 (sub 0) OBJ File: 'field_tex.blend'
# www.blender.org
mtllib field.mtl
o Curve_Mesh
v -4.367915 -0.000192 -2.499570
v -4.355230 -0.000192 -2.500000
v 4.355230 -0.000192 -2.500000
v 4.503363 -0.000192 -2.485395
v -4.402990 -0.000192 -2.496563
v -4.597764 -0.000192 -2.446304
v -4.677614 -0.000192 -2.407212
v -4.677614 0.500192 -2.407212
v -4.597764 0.500192 -2.446304
v 4.355230 0.500192 -2.500000
v 4.503363 0.500192 -2.485395
v -4.899254 -0.000192 -2.186843
v -4.952239 -0.000192 -2.070429
v -4.952239 0.500192 -2.070429
v -4.899254 0.500192 -2.186843
v -4.976120 -0.000192 1.950149
v -4.953359 -0.000192 2.036922
v -4.953359 0.500192 2.036922
v -4.976120 0.500192 1.950149
v -4.757464 -0.000192 -2.352657
v -4.832837 -0.000192 -2.280060
v -4.832837 0.500192 -2.280060
v -4.757464 0.500192 -2.352657
v 4.757464 -0.000192 2.352657
v 4.832837 -0.000192 2.280060
v 4.832837 0.500192 2.280060
v 4.757464 0.500192 2.352657
v 4.952239 -0.000192 2.070429
v 4.987314 -0.000192 1.928241
v 4.987314 0.500192 1.928241
v 4.952239 0.500192 2.070429
v 4.953359 -0.000192 -2.036922
v 4.976120 -0.000192 -1.950149
v 4.989926 -0.000192 -1.873685
v 5.000000 -0.000192 -1.757701
v -5.000000 -0.000192 -1.757701
v -4.987314 -0.000192 -1.928241
v -4.522392 -0.000192 -2.472507
v 4.626869 -0.000192 -2.445015
v 4.727987 -0.000192 -2.384016
v 4.808957 -0.000192 -2.307552
v 4.872016 -0.000192 -2.220779
v 4.919404 -0.000192 -2.128850
v 4.626869 0.500192 -2.445015
v 4.522392 -0.000192 2.472507
v 4.597764 -0.000192 2.446304
v 4.597764 0.500192 2.446304
v 4.522392 0.500192 2.472507
v 4.976120 0.500192 -1.950149
v 4.989926 0.500192 -1.873685
v -4.626869 -0.000192 2.445015
v -4.503363 -0.000192 2.485395
v -4.503363 0.500192 2.485395
v -4.626869 0.500192 2.445015
v 4.808957 0.500192 -2.307552
v 4.872016 0.500192 -2.220779
v 5.000000 0.500192 -1.757701
v -5.000000 -0.000192 1.757701
v -5.000000 -0.000192 -1.757701
v 5.000000 -0.000192 -1.757701
v 5.000000 -0.000192 1.757701
v 4.677614 -0.000192 2.407212
v 4.677614 0.500192 2.407212
v -4.989926 -0.000192 1.873685
v -4.989926 0.500192 1.873685
v 4.367915 -0.000192 2.499570
v 4.402990 -0.000192 2.496563
v 4.402990 0.500192 2.496563
v 4.367915 0.500192 2.499570
v 4.727987 0.500192 -2.384016
v 4.899254 -0.000192 2.186843
v 4.899254 0.500192 2.186843
v -5.000000 -0.000192 1.757701
v 5.000000 -0.000192 1.757701
v -4.367915 0.500192 -2.499570
v -4.355230 0.500192 -2.500000
v -4.355230 -0.000192 2.500000
v -4.727987 -0.000192 2.384016
v -4.808957 -0.000192 2.307552
v -4.872016 -0.000192 2.220779
v -4.919404 -0.000192 2.128850
v -5.000000 0.500192 1.757701
v 5.000000 0.500192 1.757701
v 5.000000 0.500192 1.757701
v -5.000000 0.500192 1.757701
v -4.808957 0.500192 2.307552
v -4.872016 0.500192 2.220779
v 5.000000 0.500192 -1.757701
v -5.000000 0.500192 -1.757701
v -4.355230 0.500192 2.500000
v 4.355230 0.500192 2.500000
v -5.000000 0.500192 -1.757701
v -4.919404 0.500192 2.128850
v -4.727987 0.500192 2.384016
v -4.402990 0.500192 -2.496563
v 4.953359 0.500192 -2.036922
v 4.919404 0.500192 -2.128850
v -4.522392 0.500192 -2.472507
v -4.987314 0.500192 -1.928241
v 4.355230 -0.000192 2.500000
vt 0.4628 0.0796
vt 0.4629 0.0808
vt 0.4629 0.9265
vt 0.4619 0.9409
vt 0.4626 0.0762
vt 0.2442 0.0855
vt 0.2442 0.0773
vt 0.2780 0.0773
vt 0.2780 0.0855
vt 0.2442 0.9606
vt 0.2442 0.9466
vt 0.2780 0.9466
vt 0.2780 0.9606
vt 0.3707 0.4842
vt 0.3707 0.4733
vt 0.4045 0.4733
vt 0.4045 0.4842
vt 0.3707 0.0840
vt 0.3707 0.0755
vt 0.4045 0.0755
vt 0.4045 0.0840
vt 0.2442 0.0689
vt 0.2442 0.0606
vt 0.2780 0.0606
vt 0.2780 0.0689
vt 0.3167 0.0486
vt 0.3167 0.0404
vt 0.3505 0.0404
vt 0.3505 0.0486
vt 0.4045 0.5415
vt 0.4045 0.5550
vt 0.3707 0.5550
vt 0.3707 0.5415
vt 0.4316 0.9846
vt 0.4257 0.9868
vt 0.4206 0.9881
vt 0.4128 0.9891
vt 0.4128 0.0182
vt 0.4243 0.0195
vt 0.4339 0.0229
vt 0.4417 0.0280
vt 0.4480 0.0345
vt 0.4529 0.0418
vt 0.4566 0.0495
vt 0.4592 0.0573
vt 0.4610 0.0646
vt 0.4591 0.9529
vt 0.4550 0.9627
vt 0.4499 0.9706
vt 0.4440 0.9767
vt 0.4378 0.9813
vt 0.2442 0.9719
vt 0.2780 0.9719
vt 0.3167 0.0729
vt 0.3167 0.0653
vt 0.3505 0.0653
vt 0.3505 0.0729
vt 0.4045 0.9232
vt 0.4045 0.9307
vt 0.3707 0.9307
vt 0.3707 0.9232
vt 0.3167 0.9516
vt 0.3167 0.9403
vt 0.3505 0.9403
vt 0.3505 0.9516
vt 0.3707 0.4928
vt 0.4045 0.4928
vt 0.4045 0.9576
vt 0.4045 0.9665
vt 0.3707 0.9665
vt 0.3707 0.9576
vt 0.4045 0.9119
vt 0.3707 0.9119
vt 0.2474 0.9854
vt 0.0101 0.9854
vt 0.0101 0.0146
vt 0.2474 0.0146
vt 0.3167 0.0570
vt 0.3505 0.0570
vt 0.3707 0.0915
vt 0.4045 0.0915
vt 0.3167 0.0881
vt 0.3167 0.0847
vt 0.3505 0.0847
vt 0.3505 0.0881
vt 0.2442 0.9808
vt 0.2780 0.9808
vt 0.4045 0.5219
vt 0.4045 0.5305
vt 0.3707 0.5305
vt 0.3707 0.5219
vt 0.0000 0.0000
vt 0.0000 0.0000
vt 0.0000 0.0000
vt 0.0000 0.0000
vt 0.0000 0.0000
vt 0.0000 0.0000
vt 0.0000 0.0000
vt 0.0000 0.0000
vt 0.4255 0.0438
vt 0.4247 0.8907
vt 0.4255 0.0450
vt 0.3493 0.9541
vt 0.3467 0.9464
vt 0.3449 0.9391
vt 0.3433 0.9275
vt 0.3430 0.0772
vt 0.3440 0.0628
vt 0.3467 0.0508
vt 0.3509 0.0410
vt 0.3560 0.0331
vt 0.3619 0.0270
vt 0.3681 0.0224
vt 0.3743 0.0191
vt 0.3801 0.0169
vt 0.3853 0.0155
vt 0.3931 0.0146
vt 0.3931 0.9854
vt 0.3816 0.9842
vt 0.3720 0.9808
vt 0.3642 0.9757
vt 0.3579 0.9692
vt 0.3530 0.9619
vt 0.0000 0.0000
vt 0.0000 0.0000
vt 0.0000 0.0000
vt 0.0000 0.0000
vt 0.3707 0.0571
vt 0.3707 0.0483
vt 0.4045 0.0483
vt 0.4045 0.0571
vt 0.9214 1.0001
vt 0.9209 0.0123
vt 0.5736 0.0125
vt 0.5742 1.0003
vt 0.2957 0.9392
vt 0.2954 0.0935
vt 0.2955 0.0923
vt 0.0000 0.0000
vt 0.0000 0.0000
vt 0.0000 0.0000
vt 0.0000 0.0000
vt 0.9837 0.0434
vt 0.9783 0.0355
vt 0.9712 0.0280
vt 0.9619 0.0215
vt 0.9504 0.0163
vt 0.9364 0.0128
vt 0.9195 0.0116
vt 0.9201 0.9993
vt 0.9316 0.9983
vt 0.9391 0.9969
vt 0.9477 0.9947
vt 0.9568 0.9913
vt 0.9659 0.9866
vt 0.9744 0.9804
vt 0.9820 0.9724
vt 0.9880 0.9624
vt 0.9920 0.9502
vt 0.9934 0.9356
vt 0.9926 0.0705
vt 0.9902 0.0587
vt 0.9876 0.0512
vt 0.4045 0.5714
vt 0.3707 0.5714
vt 0.4257 0.9051
vt 0.2442 0.1084
vt 0.2442 0.1049
vt 0.2780 0.1049
vt 0.2780 0.1084
vt 0.3707 0.4433
vt 0.3707 0.1028
vt 0.4045 0.1028
vt 0.4045 0.4433
vt 0.4257 0.0404
vt 0.3167 0.9263
vt 0.3505 0.9263
vt 0.5465 0.0181
vt 0.5375 0.0215
vt 0.5284 0.0262
vt 0.5198 0.0324
vt 0.5123 0.0404
vt 0.5062 0.0504
vt 0.5023 0.0626
vt 0.5017 0.9423
vt 0.5041 0.9541
vt 0.5067 0.9615
vt 0.5105 0.9694
vt 0.5159 0.9773
vt 0.5231 0.9847
vt 0.5323 0.9913
vt 0.5438 0.9965
vt 0.5579 1.0000
vt 0.5747 1.0012
vt 0.5741 0.0135
vt 0.5627 0.0145
vt 0.5551 0.0159
vt 0.2957 0.0889
vt 0.4045 0.9484
vt 0.3707 0.9484
vt 0.2442 0.0931
vt 0.2780 0.0931
vt 0.2442 0.1096
vt 0.2780 0.1096
vt 0.3431 0.9241
vt 0.3430 0.9228
vt 0.4045 0.9393
vt 0.3707 0.9393
vt 0.3167 0.0893
vt 0.3505 0.0893
vt 0.3167 0.9605
vt 0.3505 0.9605
vt 0.3707 0.4598
vt 0.4045 0.4598
vt 0.3707 0.0664
vt 0.4045 0.0664
vt 0.4045 0.9744
vt 0.3707 0.9744
vt 0.3707 0.0404
vt 0.4045 0.0404
vn 0.0000 -1.0000 -0.0000
vn -0.4397 0.0000 -0.8981
vn 0.0981 0.0000 -0.9952
vn -0.9102 0.0000 -0.4143
vn -0.9673 0.0000 0.2537
vn -0.6937 0.0000 -0.7202
vn 0.6937 0.0000 0.7202
vn 0.9709 0.0000 0.2395
vn 0.3108 0.0000 -0.9505
vn 0.3284 0.0000 0.9445
vn 0.9841 0.0000 -0.1777
vn -0.3108 0.0000 0.9505
vn -0.8144 0.0000 -0.5803
vn 0.8090 0.0000 -0.5879
vn 0.9962 0.0000 -0.0865
vn 0.5641 0.0000 0.8257
vn -0.9841 0.0000 0.1777
vn 0.0854 0.0000 0.9963
vn 0.5165 0.0000 -0.8563
vn 0.8144 0.0000 0.5803
vn 0.0000 0.0000 0.0000
vn 0.0000 1.0000 0.0000
vn 0.0000 1.0000 0.0003
vn -0.8090 0.0000 0.5879
vn 0.0000 1.0000 0.0001
vn 0.9972 0.0000 0.0742
vn -0.0854 0.0000 -0.9963
vn -1.0000 0.0000 0.0000
vn -0.0981 0.0000 0.9952
vn 0.8889 0.0000 -0.4582
vn -0.1975 0.0000 -0.9803
vn -0.5641 0.0000 -0.8257
vn -0.0339 0.0000 -0.9994
vn 0.9381 0.0000 -0.3465
vn 0.0339 0.0000 0.9994
vn 0.4397 0.0000 0.8981
vn -0.5165 0.0000 0.8563
vn -0.9962 0.0000 0.0865
vn -0.3284 0.0000 -0.9446
vn 0.0000 0.0000 -1.0000
vn -0.9709 0.0000 -0.2395
vn 1.0000 0.0000 0.0000
vn -0.9381 0.0000 0.3465
vn 0.1975 0.0000 0.9803
vn 0.9102 0.0000 0.4143
vn 0.9673 0.0000 -0.2537
vn -0.9972 0.0000 -0.0742
vn 0.6866 0.0000 -0.7270
vn -0.8889 0.0000 0.4582
vn 0.0000 0.0000 1.0000
vn -0.6866 0.0000 0.7270
usemtl field
s 1
f 1/1/1 2/2/1 3/3/1
f 1/1/1 3/3/1 4/4/1
f 5/5/1 1/1/1 4/4/1
f 6/6/2 7/7/2 8/8/2 9/9/2
f 4/10/3 3/11/3 10/12/3 11/13/3
f 12/14/4 13/15/4 14/16/4 15/17/4
f 16/18/5 17/19/5 18/20/5 19/21/5
f 20/22/6 21/23/6 22/24/6 23/25/6
f 24/26/7 25/27/7 26/28/7 27/29/7
f 28/30/8 29/31/8 30/32/8 31/33/8
f 32/34/1 33/35/1 34/36/1 35/37/1 36/38/1 37/39/1 13/40/1 12/41/1 21/42/1 20/43/1 7/44/1 6/45/1 38/46/1 5/5/1 4/4/1 39/47/1 40/48/1 41/49/1 42/50/1 43/51/1
f 39/52/9 4/10/9 11/13/9 44/53/9
f 45/54/10 46/55/10 47/56/10 48/57/10
f 34/58/11 33/59/11 49/60/11 50/61/11
f 51/62/12 52/63/12 53/64/12 54/65/12
f 21/66/13 12/14/13 15/17/13 22/67/13
f 42/68/14 41/69/14 55/70/14 56/71/14
f 35/72/15 34/58/15 50/61/15 57/73/15
f 58/74/1 59/75/1 60/76/1 61/77/1
f 62/78/16 24/26/16 27/29/16 63/79/16
f 64/80/17 16/18/17 19/21/17 65/81/17
f 66/82/18 67/83/18 68/84/18 69/85/18
f 40/86/19 39/52/19 44/53/19 70/87/19
f 25/88/20 71/89/20 72/90/20 26/91/20
f 36/92/21 59/93/21 58/94/21 73/95/21
f 74/96/21 61/97/21 60/98/21 35/99/21
f 75/100/22 10/101/22 76/102/23
f 62/103/1 46/104/1 45/105/1 67/106/1 77/107/1 52/108/1 51/109/1 78/110/1 79/111/1 80/112/1 81/113/1 17/114/1 16/115/1 64/116/1 73/117/1 74/118/1 29/119/1 28/120/1 71/121/1 25/122/1 24/123/1
f 82/124/21 83/125/21 84/126/21 85/127/21
f 80/128/24 79/129/24 86/130/24 87/131/24
f 85/132/22 84/133/22 88/134/22 89/135/22
f 90/136/22 91/137/25 69/138/22
f 57/139/21 92/140/21 89/141/21 88/142/21
f 63/143/22 27/144/22 26/145/22 72/146/22 31/147/22 30/148/22 83/149/22 82/150/22 65/151/22 19/152/22 18/153/22 93/154/22 87/155/22 86/156/22 94/157/22 54/158/22 53/159/22 90/160/22 68/161/22 48/162/22 47/163/22
f 29/31/26 74/164/26 83/165/26 30/32/26
f 75/100/22 11/166/22 10/101/22
f 92/140/21 82/124/21 85/127/21 89/141/21
f 1/167/27 5/168/27 95/169/27 75/170/27
f 36/171/28 73/172/28 82/173/28 92/174/28
f 83/125/21 57/139/21 88/142/21 84/126/21
f 95/175/22 11/166/22 75/100/22
f 52/63/29 77/176/29 90/177/29 53/64/29
f 96/178/22 97/179/22 56/180/22 55/181/22 70/182/22 44/183/22 11/184/22 95/185/22 98/186/22 9/187/22 8/188/22 23/189/22 22/190/22 15/191/22 14/192/22 99/193/22 92/194/22 57/195/22 50/196/22 49/197/22
f 90/136/22 69/138/22 68/198/22
f 43/199/30 42/68/30 56/71/30 97/200/30
f 5/168/31 38/201/31 98/202/31 95/169/31
f 7/7/32 20/22/32 23/25/32 8/8/32
f 2/203/33 1/167/33 75/170/33 76/204/33
f 77/107/1 67/106/1 66/205/1
f 77/107/1 66/205/1 100/206/1
f 32/207/34 43/199/34 97/200/34 96/208/34
f 100/209/35 66/82/35 69/85/35 91/210/35
f 35/99/21 60/98/21 59/93/21 36/92/21
f 73/95/21 58/94/21 61/97/21 74/96/21
f 46/55/36 62/78/36 63/79/36 47/56/36
f 78/211/37 51/62/37 54/65/37 94/212/37
f 73/172/38 64/80/38 65/81/38 82/173/38
f 38/201/39 6/6/39 9/9/39 98/202/39
f 3/11/40 2/203/40 76/204/40 10/12/40
f 13/15/41 37/213/41 99/214/41 14/16/41
f 74/164/42 35/72/42 57/73/42 83/165/42
f 17/19/43 81/215/43 93/216/43 18/20/43
f 67/83/44 45/54/44 48/57/44 68/84/44
f 71/89/45 28/30/45 31/33/45 72/90/45
f 33/59/46 32/207/46 96/208/46 49/60/46
f 37/213/47 36/171/47 92/174/47 99/214/47
f 41/69/48 40/217/48 70/218/48 55/70/48
f 81/215/49 80/128/49 87/131/49 93/216/49
f 77/176/50 100/209/50 91/210/50 90/177/50
f 79/129/51 78/219/51 94/220/51 86/130/51
