# Blender v2.77 (sub 0) OBJ File: 'field_border.blend'
# www.blender.org
mtllib field.mtl
o Box02
v -4.355231 0.000000 -2.500000
v 4.355229 0.000000 -2.500000
v 4.503362 0.000000 -2.485394
v 4.626868 0.000000 -2.445015
v 4.727986 0.000000 -2.384016
v 4.808956 0.000000 -2.307552
v 4.872015 0.000000 -2.220779
v 4.919403 0.000000 -2.128851
v 4.953358 0.000000 -2.036922
v 4.976119 0.000000 -1.950149
v 4.989925 0.000000 -1.873685
v 4.997015 0.000000 -1.812686
v 4.999627 0.000000 -1.772306
v 4.999999 0.000000 -1.757701
v 4.999999 0.000000 1.757701
v 4.987313 0.000000 1.928241
v 4.952238 0.000000 2.070429
v 4.899253 0.000000 2.186843
v 4.832836 0.000000 2.280060
v 4.757463 0.000000 2.352658
v 4.677614 0.000000 2.407213
v 4.597764 0.000000 2.446304
v 4.522391 0.000000 2.472508
v 4.455974 0.000000 2.488402
v 4.402989 0.000000 2.496564
v 4.367914 0.000000 2.499571
v 4.355229 0.000000 2.500000
v -4.355231 0.000000 2.500000
v -4.503364 0.000000 2.485395
v -4.626870 0.000000 2.445015
v -4.727989 0.000000 2.384016
v -4.808958 0.000000 2.307552
v -4.872017 0.000000 2.220779
v -4.919405 0.000000 2.128851
v -4.953359 0.000000 2.036922
v -4.976120 0.000000 1.950149
v -4.989926 0.000000 1.873685
v -4.997015 0.000000 1.812686
v -4.999627 0.000000 1.772307
v -5.000001 0.000000 1.757701
v -5.000001 0.000000 -1.757701
v -4.987315 0.000000 -1.928241
v -4.952240 0.000000 -2.070429
v -4.899255 0.000000 -2.186842
v -4.832839 0.000000 -2.280059
v -4.757466 0.000000 -2.352657
v -4.677616 0.000000 -2.407212
v -4.597765 0.000000 -2.446304
v -4.522393 0.000000 -2.472507
v -4.455975 0.000000 -2.488401
v -4.402991 0.000000 -2.496563
v -4.367917 0.000000 -2.499570
v -4.355231 -0.305776 -2.500000
v 4.355229 -0.305776 -2.500000
v 4.503362 -0.305776 -2.485394
v 4.626868 -0.305776 -2.445015
v 4.727986 -0.305776 -2.384016
v 4.808956 -0.305776 -2.307552
v 4.872015 -0.305776 -2.220779
v 4.919403 -0.305776 -2.128851
v 4.953358 -0.305776 -2.036922
v 4.976119 -0.305776 -1.950149
v 4.989925 -0.305776 -1.873685
v 4.997015 -0.305776 -1.812686
v 4.999627 -0.305776 -1.772306
v 4.999999 -0.305776 -1.757701
v 4.999999 -0.305776 1.757701
v 4.987313 -0.305776 1.928241
v 4.952238 -0.305776 2.070429
v 4.899253 -0.305776 2.186843
v 4.832836 -0.305776 2.280060
v 4.757463 -0.305776 2.352658
v 4.677614 -0.305776 2.407213
v 4.597764 -0.305776 2.446304
v 4.522391 -0.305776 2.472508
v 4.455974 -0.305776 2.488402
v 4.402989 -0.305776 2.496564
v 4.367914 -0.305776 2.499571
v 4.355229 -0.305776 2.500000
v -4.355231 -0.305776 2.500000
v -4.503364 -0.305776 2.485395
v -4.626870 -0.305776 2.445015
v -4.727989 -0.305776 2.384016
v -4.808958 -0.305776 2.307552
v -4.872017 -0.305776 2.220779
v -4.919405 -0.305776 2.128851
v -4.953359 -0.305776 2.036922
v -4.976120 -0.305776 1.950149
v -4.989926 -0.305776 1.873685
v -4.997015 -0.305776 1.812686
v -4.999627 -0.305776 1.772307
v -5.000001 -0.305776 1.757701
v -5.000001 -0.305776 -1.757701
v -4.987315 -0.305776 -1.928241
v -4.952240 -0.305776 -2.070429
v -4.899255 -0.305776 -2.186842
v -4.832839 -0.305776 -2.280059
v -4.757466 -0.305776 -2.352657
v -4.677616 -0.305776 -2.407212
v -4.597765 -0.305776 -2.446304
v -4.522393 -0.305776 -2.472507
v -4.455975 -0.305776 -2.488401
v -4.402991 -0.305776 -2.496563
v -4.367917 -0.305776 -2.499570
vt 0.0000 0.0000
vt 1.0000 1.0000
vt 1.0000 0.0000
vt 1.0000 1.0000
vt 1.0000 0.0000
vt 0.0000 0.0000
vt 1.0000 1.0000
vt 0.0000 0.0000
vt 1.0000 1.0000
vt 0.0000 0.0000
vt 1.0000 1.0000
vt 1.0000 1.0000
vt 1.0000 0.0000
vt 0.0000 0.0000
vt 1.0000 1.0000
vt 0.0000 0.0000
vt 1.0000 1.0000
vt 1.0000 1.0000
vt 1.0000 0.0000
vt 0.0000 0.0000
vt 1.0000 1.0000
vt 1.0000 1.0000
vt 1.0000 0.0000
vt 0.0000 0.0000
vt 1.0000 1.0000
vt 1.0000 1.0000
vt 1.0000 0.0000
vt 0.0000 0.0000
vt 1.0000 1.0000
vt 1.0000 1.0000
vt 1.0000 0.0000
vt 0.0000 0.0000
vt 1.0000 1.0000
vt 1.0000 1.0000
vt 1.0000 0.0000
vt 0.0000 0.0000
vt 1.0000 1.0000
vt 1.0000 1.0000
vt 1.0000 0.0000
vt 1.0000 1.0000
vt 1.0000 0.0000
vt 0.0000 0.0000
vt 1.0000 1.0000
vt 1.0000 1.0000
vt 1.0000 0.0000
vt 1.0000 1.0000
vt 1.0000 0.0000
vt 1.0000 1.0000
vt 1.0000 0.0000
vt 0.0000 0.0000
vt 1.0000 1.0000
vt 1.0000 1.0000
vt 1.0000 0.0000
vt 0.0000 0.0000
vt 1.0000 1.0000
vt 1.0000 1.0000
vt 1.0000 0.0000
vt 0.0000 0.0000
vt 1.0000 1.0000
vt 0.0000 0.0000
vt 1.0000 1.0000
vt 0.0000 0.0000
vt 1.0000 1.0000
vt 1.0000 1.0000
vt 1.0000 0.0000
vt 0.0000 0.0000
vt 1.0000 1.0000
vt 0.0000 0.0000
vt 1.0000 1.0000
vt 1.0000 1.0000
vt 1.0000 0.0000
vt 0.0000 0.0000
vt 1.0000 1.0000
vt 1.0000 1.0000
vt 1.0000 0.0000
vt 0.0000 0.0000
vt 1.0000 1.0000
vt 1.0000 1.0000
vt 1.0000 0.0000
vt 0.0000 0.0000
vt 1.0000 1.0000
vt 1.0000 1.0000
vt 1.0000 0.0000
vt 0.0000 0.0000
vt 1.0000 1.0000
vt 1.0000 1.0000
vt 1.0000 0.0000
vt 0.0000 0.0000
vt 1.0000 1.0000
vt 1.0000 1.0000
vt 1.0000 0.0000
vt 1.0000 1.0000
vt 1.0000 0.0000
vt 0.0000 0.0000
vt 1.0000 1.0000
vt 1.0000 1.0000
vt 1.0000 0.0000
vt 1.0000 1.0000
vt 1.0000 0.0000
vt 1.0000 1.0000
vt 1.0000 0.0000
vt 0.0000 0.0000
vt 1.0000 0.0000
vt 1.0000 1.0000
vt 1.0000 0.0000
vt 1.0000 1.0000
vt 0.0000 0.0000
vt 1.0000 1.0000
vt 0.0000 0.0000
vt 1.0000 1.0000
vt 0.0000 0.0000
vt 1.0000 1.0000
vt 1.0000 0.0000
vt 1.0000 1.0000
vt 0.0000 0.0000
vt 1.0000 1.0000
vt 0.0000 0.0000
vt 1.0000 1.0000
vt 1.0000 0.0000
vt 1.0000 1.0000
vt 0.0000 0.0000
vt 1.0000 1.0000
vt 1.0000 0.0000
vt 1.0000 1.0000
vt 0.0000 0.0000
vt 1.0000 1.0000
vt 1.0000 0.0000
vt 1.0000 1.0000
vt 0.0000 0.0000
vt 1.0000 1.0000
vt 1.0000 0.0000
vt 1.0000 1.0000
vt 0.0000 0.0000
vt 1.0000 1.0000
vt 1.0000 0.0000
vt 1.0000 1.0000
vt 0.0000 0.0000
vt 1.0000 1.0000
vt 1.0000 0.0000
vt 1.0000 1.0000
vt 1.0000 0.0000
vt 1.0000 1.0000
vt 0.0000 0.0000
vt 1.0000 1.0000
vt 1.0000 0.0000
vt 1.0000 1.0000
vt 1.0000 0.0000
vt 1.0000 1.0000
vt 1.0000 0.0000
vt 1.0000 1.0000
vt 0.0000 0.0000
vt 1.0000 1.0000
vt 1.0000 0.0000
vt 1.0000 1.0000
vt 0.0000 0.0000
vt 1.0000 1.0000
vt 1.0000 0.0000
vt 1.0000 1.0000
vt 0.0000 0.0000
vt 1.0000 1.0000
vt 0.0000 0.0000
vt 1.0000 1.0000
vt 0.0000 0.0000
vt 1.0000 1.0000
vt 1.0000 0.0000
vt 1.0000 1.0000
vt 0.0000 0.0000
vt 1.0000 1.0000
vt 0.0000 0.0000
vt 1.0000 1.0000
vt 1.0000 0.0000
vt 1.0000 1.0000
vt 0.0000 0.0000
vt 1.0000 1.0000
vt 1.0000 0.0000
vt 1.0000 1.0000
vt 0.0000 0.0000
vt 1.0000 1.0000
vt 1.0000 0.0000
vt 1.0000 1.0000
vt 0.0000 0.0000
vt 1.0000 1.0000
vt 1.0000 0.0000
vt 1.0000 1.0000
vt 0.0000 0.0000
vt 1.0000 1.0000
vt 1.0000 0.0000
vt 1.0000 1.0000
vt 0.0000 0.0000
vt 1.0000 1.0000
vt 1.0000 0.0000
vt 1.0000 1.0000
vt 1.0000 0.0000
vt 1.0000 1.0000
vt 0.0000 0.0000
vt 1.0000 1.0000
vt 1.0000 0.0000
vt 1.0000 1.0000
vt 1.0000 0.0000
vt 1.0000 1.0000
vt 1.0000 0.0000
vt 1.0000 1.0000
vn 0.0000 -1.0000 0.0000
vn 0.0000 1.0000 -0.0001
vn 0.0000 1.0000 0.0000
vn 0.0000 1.0000 0.0001
vn 0.6866 0.0000 -0.7270
vn 0.0338 0.0000 0.9994
vn -0.8889 0.0000 0.4582
vn -0.2327 0.0000 -0.9725
vn 0.0981 0.0000 -0.9952
vn 0.0854 0.0000 0.9963
vn -0.0338 0.0000 -0.9994
vn 0.5641 0.0000 0.8257
vn 0.9997 0.0000 -0.0256
vn 0.9933 0.0000 -0.1154
vn 0.2327 0.0000 0.9725
vn -0.9933 0.0000 0.1154
vn -0.3108 0.0000 0.9505
vn -0.6937 0.0000 -0.7202
vn -0.3284 0.0000 -0.9445
vn -0.8090 0.0000 0.5879
vn -0.9709 0.0000 -0.2395
vn 0.9673 0.0000 -0.2537
vn 0.9102 0.0000 0.4143
vn 0.5165 0.0000 -0.8563
vn 0.9979 0.0000 -0.0645
vn 0.3284 0.0000 0.9445
vn -0.1522 0.0000 -0.9883
vn 0.0000 0.0000 1.0000
vn -0.9102 0.0000 -0.4143
vn 0.8889 0.0000 -0.4582
vn -0.9673 0.0000 0.2537
vn 0.9972 0.0000 0.0742
vn 0.0000 0.0000 -1.0000
vn 0.8090 0.0000 -0.5879
vn -0.9997 0.0000 0.0255
vn -0.9381 0.0000 0.3465
vn 0.1522 0.0000 0.9883
vn 1.0000 0.0000 0.0000
vn -0.9972 0.0000 -0.0742
vn -0.5165 0.0000 0.8563
vn -0.9979 0.0000 0.0646
vn -0.5641 0.0000 -0.8257
vn -0.0854 0.0000 -0.9963
vn 0.9841 0.0000 -0.1777
vn -0.8144 0.0000 -0.5803
vn -0.9841 0.0000 0.1777
vn 0.8144 0.0000 0.5803
vn 0.6937 0.0000 0.7202
vn 0.3108 0.0000 -0.9505
vn 0.4397 0.0000 0.8981
vn -0.0981 0.0000 0.9952
vn -0.4397 0.0000 -0.8981
vn 0.9709 0.0000 0.2395
vn -1.0000 0.0000 0.0000
vn 0.9381 0.0000 -0.3465
vn -0.6866 0.0000 0.7270
usemtl ice
s off
f 52/1/1 1/2/1 2/3/1
f 52/1/1 2/4/1 3/5/1
f 51/6/1 52/7/1 3/5/1
f 50/8/1 51/9/1 3/5/1
f 49/10/1 50/11/1 3/5/1
f 49/10/1 3/12/1 4/13/1
f 48/14/1 49/15/1 4/13/1
f 47/16/1 48/17/1 4/13/1
f 47/16/1 4/18/1 5/19/1
f 46/20/1 47/21/1 5/19/1
f 46/20/1 5/22/1 6/23/1
f 45/24/1 46/25/1 6/23/1
f 45/24/1 6/26/1 7/27/1
f 44/28/1 45/29/1 7/27/1
f 44/28/1 7/30/1 8/31/1
f 43/32/1 44/33/1 8/31/1
f 43/32/1 8/34/1 9/35/1
f 42/36/1 43/37/1 9/35/1
f 42/36/1 9/38/1 10/39/1
f 42/36/1 10/40/1 11/41/1
f 41/42/1 42/43/1 11/41/1
f 41/42/1 11/44/1 12/45/1
f 41/42/1 12/46/1 13/47/1
f 41/42/1 13/48/1 14/49/1
f 40/50/1 41/51/1 14/49/1
f 40/50/1 14/52/1 15/53/1
f 39/54/1 40/55/1 15/53/1
f 39/54/1 15/56/1 16/57/1
f 38/58/1 39/59/1 16/57/1
f 37/60/1 38/61/1 16/57/1
f 36/62/1 37/63/1 16/57/1
f 36/62/1 16/64/1 17/65/1
f 35/66/1 36/67/1 17/65/1
f 34/68/1 35/69/1 17/65/1
f 34/68/1 17/70/1 18/71/1
f 33/72/1 34/73/1 18/71/1
f 33/72/1 18/74/1 19/75/1
f 32/76/1 33/77/1 19/75/1
f 32/76/1 19/78/1 20/79/1
f 31/80/1 32/81/1 20/79/1
f 31/80/1 20/82/1 21/83/1
f 30/84/1 31/85/1 21/83/1
f 30/84/1 21/86/1 22/87/1
f 29/88/1 30/89/1 22/87/1
f 29/88/1 22/90/1 23/91/1
f 29/88/1 23/92/1 24/93/1
f 28/94/1 29/95/1 24/93/1
f 28/94/1 24/96/1 25/97/1
f 28/94/1 25/98/1 26/99/1
f 28/94/1 26/100/1 27/101/1
f 104/102/2 54/103/2 53/104/2
f 104/102/3 55/105/3 54/106/3
f 103/107/3 55/105/3 104/108/3
f 102/109/3 55/105/3 103/110/3
f 101/111/3 55/105/3 102/112/3
f 101/111/3 56/113/3 55/114/3
f 100/115/3 56/113/3 101/116/3
f 99/117/3 56/113/3 100/118/3
f 99/117/3 57/119/3 56/120/3
f 98/121/3 57/119/3 99/122/3
f 98/121/3 58/123/3 57/124/3
f 97/125/3 58/123/3 98/126/3
f 97/125/3 59/127/3 58/128/3
f 96/129/3 59/127/3 97/130/3
f 96/129/3 60/131/3 59/132/3
f 95/133/3 60/131/3 96/134/3
f 95/133/3 61/135/3 60/136/3
f 94/137/3 61/135/3 95/138/3
f 94/137/3 62/139/3 61/140/3
f 94/137/3 63/141/3 62/142/3
f 93/143/3 63/141/3 94/144/3
f 93/143/3 64/145/3 63/146/3
f 93/143/3 65/147/3 64/148/3
f 93/143/3 66/149/3 65/150/3
f 92/151/3 66/149/3 93/152/3
f 92/151/3 67/153/3 66/154/3
f 91/155/3 67/153/3 92/156/3
f 91/155/3 68/157/3 67/158/3
f 90/159/3 68/157/3 91/160/3
f 89/161/3 68/157/3 90/162/3
f 88/163/3 68/157/3 89/164/3
f 88/163/3 69/165/3 68/166/3
f 87/167/3 69/165/3 88/168/3
f 86/169/3 69/165/3 87/170/3
f 86/169/3 70/171/3 69/172/3
f 85/173/3 70/171/3 86/174/3
f 85/173/3 71/175/3 70/176/3
f 84/177/3 71/175/3 85/178/3
f 84/177/3 72/179/3 71/180/3
f 83/181/3 72/179/3 84/182/3
f 83/181/3 73/183/3 72/184/3
f 82/185/3 73/183/3 83/186/3
f 82/185/3 74/187/3 73/188/3
f 81/189/3 74/187/3 82/190/3
f 81/189/3 75/191/3 74/192/3
f 81/189/3 76/193/3 75/194/3
f 80/195/3 76/193/3 81/196/3
f 80/195/3 77/197/3 76/198/3
f 80/195/3 78/199/3 77/200/3
f 80/195/4 79/201/4 78/202/4
f 32/81/5 31/80/5 83/181/5 84/182/5
f 1/2/6 52/1/6 104/102/6 53/104/6
f 8/31/7 7/30/7 59/132/7 60/131/7
f 24/93/8 23/92/8 75/194/8 76/193/8
f 29/95/9 28/94/9 80/195/9 81/196/9
f 52/7/10 51/6/10 103/107/10 104/108/10
f 27/101/11 26/100/11 78/202/11 79/201/11
f 47/21/12 46/20/12 98/121/12 99/122/12
f 40/55/13 39/54/13 91/155/13 92/156/13
f 38/61/14 37/60/14 89/161/14 90/162/14
f 50/11/15 49/10/15 101/111/15 102/112/15
f 12/45/16 11/44/16 63/146/16 64/145/16
f 4/13/17 3/12/17 55/114/17 56/113/17
f 20/79/18 19/78/18 71/180/18 72/179/18
f 23/91/19 22/90/19 74/192/19 75/191/19
f 7/27/20 6/26/20 58/128/20 59/127/20
f 17/65/21 16/64/21 68/166/21 69/165/21
f 36/67/22 35/66/22 87/167/22 88/168/22
f 44/33/23 43/32/23 95/133/23 96/134/23
f 31/85/24 30/84/24 82/185/24 83/186/24
f 39/59/25 38/58/25 90/159/25 91/160/25
f 49/15/26 48/14/26 100/115/26 101/116/26
f 25/97/27 24/96/27 76/198/27 77/197/27
f 2/3/28 1/2/28 53/104/28 54/103/28
f 18/71/29 17/70/29 69/172/29 70/171/29
f 34/73/30 33/72/30 85/173/30 86/174/30
f 10/39/31 9/38/31 61/140/31 62/139/31
f 42/43/32 41/42/32 93/143/32 94/144/32
f 28/94/33 27/101/33 79/201/33 80/195/33
f 33/77/34 32/76/34 84/177/34 85/178/34
f 14/49/35 13/48/35 65/150/35 66/149/35
f 9/35/36 8/34/36 60/136/36 61/135/36
f 51/9/37 50/8/37 102/109/37 103/110/37
f 41/51/38 40/50/38 92/151/38 93/152/38
f 16/57/39 15/56/39 67/158/39 68/157/39
f 5/19/40 4/18/40 56/120/40 57/119/40
f 13/47/41 12/46/41 64/148/41 65/147/41
f 21/83/42 20/82/42 72/184/42 73/183/42
f 26/99/43 25/98/43 77/200/43 78/199/43
f 37/63/44 36/62/44 88/163/44 89/164/44
f 19/75/45 18/74/45 70/176/45 71/175/45
f 11/41/46 10/40/46 62/142/46 63/141/46
f 45/29/47 44/28/47 96/129/47 97/130/47
f 46/25/48 45/24/48 97/125/48 98/126/48
f 30/89/49 29/88/49 81/189/49 82/190/49
f 48/17/50 47/16/50 99/117/50 100/118/50
f 3/5/51 2/4/51 54/106/51 55/105/51
f 22/87/52 21/86/52 73/188/52 74/187/52
f 43/37/53 42/36/53 94/137/53 95/138/53
f 15/53/54 14/52/54 66/154/54 67/153/54
f 35/69/55 34/68/55 86/169/55 87/170/55
f 6/23/56 5/22/56 57/124/56 58/123/56
