# Blender v2.77 (sub 0) OBJ File: 'field.blend'
# www.blender.org
mtllib field.mtl
o Curve_Mesh
v -4.367915 -0.000192 -2.499570
v -4.355230 -0.000192 -2.500000
v 4.355230 -0.000192 -2.500000
v 4.503363 -0.000192 -2.485395
v -4.402990 -0.000192 -2.496563
v -4.597764 -0.000192 -2.446304
v -4.677614 -0.000192 -2.407212
v -4.677614 0.500192 -2.407212
v -4.597764 0.500192 -2.446304
v 4.355230 0.500192 -2.500000
v 4.503363 0.500192 -2.485395
v -4.899254 -0.000192 -2.186843
v -4.952239 -0.000192 -2.070429
v -4.952239 0.500192 -2.070429
v -4.899254 0.500192 -2.186843
v -4.976120 -0.000192 1.950149
v -4.953359 -0.000192 2.036922
v -4.953359 0.500192 2.036922
v -4.976120 0.500192 1.950149
v -4.757464 -0.000192 -2.352657
v -4.832837 -0.000192 -2.280060
v -4.832837 0.500192 -2.280060
v -4.757464 0.500192 -2.352657
v 4.757464 -0.000192 2.352657
v 4.832837 -0.000192 2.280060
v 4.832837 0.500192 2.280060
v 4.757464 0.500192 2.352657
v 4.952239 -0.000192 2.070429
v 4.987314 -0.000192 1.928241
v 4.987314 0.500192 1.928241
v 4.952239 0.500192 2.070429
v 4.953359 -0.000192 -2.036922
v 4.976120 -0.000192 -1.950149
v 4.989926 -0.000192 -1.873685
v 5.000000 -0.000192 -1.757701
v -5.000000 -0.000192 -1.757701
v -4.987314 -0.000192 -1.928241
v -4.522392 -0.000192 -2.472507
v 4.626869 -0.000192 -2.445015
v 4.727987 -0.000192 -2.384016
v 4.808957 -0.000192 -2.307552
v 4.872016 -0.000192 -2.220779
v 4.919404 -0.000192 -2.128850
v 4.626869 0.500192 -2.445015
v 4.522392 -0.000192 2.472507
v 4.597764 -0.000192 2.446304
v 4.597764 0.500192 2.446304
v 4.522392 0.500192 2.472507
v 4.976120 0.500192 -1.950149
v 4.989926 0.500192 -1.873685
v -4.626869 -0.000192 2.445015
v -4.503363 -0.000192 2.485395
v -4.503363 0.500192 2.485395
v -4.626869 0.500192 2.445015
v 4.808957 0.500192 -2.307552
v 4.872016 0.500192 -2.220779
v 5.000000 0.500192 -1.757701
v -5.000000 -0.000192 1.757701
v -5.000000 -0.000192 -1.757701
v 5.000000 -0.000192 -1.757701
v 5.000000 -0.000192 1.757701
v 4.677614 -0.000192 2.407212
v 4.677614 0.500192 2.407212
v -4.989926 -0.000192 1.873685
v -4.989926 0.500192 1.873685
v 4.367915 -0.000192 2.499570
v 4.402990 -0.000192 2.496563
v 4.402990 0.500192 2.496563
v 4.367915 0.500192 2.499570
v 4.727987 0.500192 -2.384016
v 4.899254 -0.000192 2.186843
v 4.899254 0.500192 2.186843
v -5.000000 -0.000192 1.757701
v 5.000000 -0.000192 1.757701
v -4.367915 0.500192 -2.499570
v -4.355230 0.500192 -2.500000
v -4.355230 -0.000192 2.500000
v -4.727987 -0.000192 2.384016
v -4.808957 -0.000192 2.307552
v -4.872016 -0.000192 2.220779
v -4.919404 -0.000192 2.128850
v -5.000000 0.500192 1.757701
v 5.000000 0.500192 1.757701
v 5.000000 0.500192 1.757701
v -5.000000 0.500192 1.757701
v -4.808957 0.500192 2.307552
v -4.872016 0.500192 2.220779
v 5.000000 0.500192 -1.757701
v -5.000000 0.500192 -1.757701
v -4.355230 0.500192 2.500000
v 4.355230 0.500192 2.500000
v -5.000000 0.500192 -1.757701
v -4.919404 0.500192 2.128850
v -4.727987 0.500192 2.384016
v -4.402990 0.500192 -2.496563
v 4.953359 0.500192 -2.036922
v 4.919404 0.500192 -2.128850
v -4.522392 0.500192 -2.472507
v -4.987314 0.500192 -1.928241
v 4.355230 -0.000192 2.500000
vt 0.8694 0.0632
vt 0.8695 0.0645
vt 0.8695 0.9355
vt 0.8682 0.9503
vt 0.8692 0.0597
vt 0.8695 0.0256
vt 0.8695 0.0172
vt 0.9130 0.0172
vt 0.9130 0.0256
vt 0.8695 0.9270
vt 0.8695 0.9125
vt 0.9130 0.9125
vt 0.9130 0.9270
vt 0.9565 0.4572
vt 0.9565 0.4459
vt 1.0000 0.4459
vt 1.0000 0.4572
vt 0.9565 0.0450
vt 0.9565 0.0362
vt 1.0000 0.0362
vt 1.0000 0.0450
vt 0.8695 0.0085
vt 0.8695 0.0000
vt 0.9130 0.0000
vt 0.9130 0.0085
vt 0.9130 0.0085
vt 0.9130 0.0000
vt 0.9565 0.0000
vt 0.9565 0.0085
vt 1.0000 0.4861
vt 1.0000 0.5001
vt 0.9565 0.5001
vt 0.9565 0.4861
vt 0.8292 0.9953
vt 0.8217 0.9976
vt 0.8150 0.9990
vt 0.8049 1.0000
vt 0.8049 0.0000
vt 0.8198 0.0013
vt 0.8321 0.0048
vt 0.8422 0.0101
vt 0.8504 0.0167
vt 0.8567 0.0243
vt 0.8614 0.0322
vt 0.8648 0.0402
vt 0.8671 0.0478
vt 0.8647 0.9627
vt 0.8594 0.9728
vt 0.8527 0.9809
vt 0.8452 0.9872
vt 0.8372 0.9919
vt 0.8695 0.9386
vt 0.9130 0.9386
vt 0.9130 0.0335
vt 0.9130 0.0256
vt 0.9565 0.0256
vt 0.9565 0.0335
vt 1.0000 0.8793
vt 1.0000 0.8871
vt 0.9565 0.8871
vt 0.9565 0.8793
vt 0.9130 0.9386
vt 0.9130 0.9270
vt 0.9565 0.9270
vt 0.9565 0.9386
vt 0.9565 0.4660
vt 1.0000 0.4660
vt 1.0000 0.9148
vt 1.0000 0.9239
vt 0.9565 0.9239
vt 0.9565 0.9148
vt 1.0000 0.8677
vt 0.9565 0.8677
vt 0.6113 1.0000
vt 0.3057 1.0000
vt 0.3057 0.0000
vt 0.6113 0.0000
vt 0.9130 0.0172
vt 0.9565 0.0172
vt 0.9565 0.0527
vt 1.0000 0.0527
vt 0.9130 0.0492
vt 0.9130 0.0456
vt 0.9565 0.0456
vt 0.9565 0.0492
vt 0.8695 0.9478
vt 0.9130 0.9478
vt 1.0000 0.4660
vt 1.0000 0.4749
vt 0.9565 0.4749
vt 0.9565 0.4660
vt 0.0000 0.0000
vt 0.0000 0.0000
vt 0.0000 0.0000
vt 0.0000 0.0000
vt 0.0000 0.0000
vt 0.0000 0.0000
vt 0.0000 0.0000
vt 0.0000 0.0000
vt 0.6758 0.9368
vt 0.6759 0.0645
vt 0.6759 0.9355
vt 0.7485 0.9678
vt 0.7451 0.9598
vt 0.7428 0.9522
vt 0.7407 0.9403
vt 0.7404 0.0645
vt 0.7417 0.0497
vt 0.7452 0.0373
vt 0.7505 0.0272
vt 0.7571 0.0191
vt 0.7647 0.0128
vt 0.7727 0.0081
vt 0.7807 0.0047
vt 0.7882 0.0024
vt 0.7949 0.0010
vt 0.8049 0.0000
vt 0.8049 1.0000
vt 0.7901 0.9987
vt 0.7777 0.9952
vt 0.7676 0.9899
vt 0.7595 0.9833
vt 0.7532 0.9757
vt 0.0000 0.0000
vt 0.0000 0.0000
vt 0.0000 0.0000
vt 0.0000 0.0000
vt 0.9565 0.0173
vt 0.9565 0.0082
vt 1.0000 0.0082
vt 1.0000 0.0173
vt 0.0000 1.0000
vt 0.3057 0.0000
vt 0.3057 1.0000
vt 0.6759 0.9355
vt 0.6759 0.0645
vt 0.6759 0.0632
vt 0.0000 0.0000
vt 0.0000 0.0000
vt 0.0000 0.0000
vt 0.0000 0.0000
vt 0.6839 0.0322
vt 0.6887 0.0243
vt 0.6950 0.0167
vt 0.7031 0.0101
vt 0.7132 0.0048
vt 0.7256 0.0013
vt 0.7404 0.0000
vt 0.7404 1.0000
vt 0.7303 0.9990
vt 0.7237 0.9976
vt 0.7161 0.9953
vt 0.7081 0.9919
vt 0.7001 0.9872
vt 0.6926 0.9809
vt 0.6859 0.9728
vt 0.6806 0.9627
vt 0.6771 0.9503
vt 0.6762 0.0597
vt 0.6782 0.0478
vt 0.6805 0.0402
vt 1.0000 0.5170
vt 0.9565 0.5170
vt 0.6746 0.0497
vt 0.8695 0.0492
vt 0.8695 0.0456
vt 0.9130 0.0456
vt 0.9130 0.0492
vt 0.9565 0.4151
vt 0.9565 0.0643
vt 1.0000 0.0643
vt 1.0000 0.4151
vt 0.6756 0.9403
vt 0.9130 0.9125
vt 0.9565 0.9125
vt 0.6356 0.0047
vt 0.6436 0.0081
vt 0.6516 0.0128
vt 0.6591 0.0191
vt 0.6658 0.0272
vt 0.6711 0.0373
vt 0.6735 0.9522
vt 0.6712 0.9598
vt 0.6678 0.9678
vt 0.6630 0.9757
vt 0.6567 0.9833
vt 0.6486 0.9899
vt 0.6385 0.9952
vt 0.6261 0.9987
vt 0.6113 1.0000
vt 0.6113 0.0000
vt 0.6214 0.0010
vt 0.6280 0.0024
vt 1.0000 0.9053
vt 0.9565 0.9053
vt 0.8695 0.0335
vt 0.9130 0.0335
vt 0.8695 0.0504
vt 0.9130 0.0504
vt 0.7404 0.9368
vt 0.7404 0.9355
vt 1.0000 0.8959
vt 0.9565 0.8959
vt 0.9130 0.0504
vt 0.9565 0.0504
vt 0.9130 0.9478
vt 0.9565 0.9478
vt 0.9565 0.4320
vt 1.0000 0.4320
vt 0.9565 0.0268
vt 1.0000 0.0268
vt 1.0000 0.9321
vt 0.9565 0.9321
vt 0.9565 0.0000
vt 1.0000 0.0000
vn 0.0000 -1.0000 -0.0000
vn -0.4397 0.0000 -0.8981
vn 0.0981 0.0000 -0.9952
vn -0.9102 0.0000 -0.4143
vn -0.9673 0.0000 0.2537
vn -0.6937 0.0000 -0.7202
vn 0.6937 0.0000 0.7202
vn 0.9709 0.0000 0.2395
vn 0.3108 0.0000 -0.9505
vn 0.3284 0.0000 0.9445
vn 0.9841 0.0000 -0.1777
vn -0.3108 0.0000 0.9505
vn -0.8144 0.0000 -0.5803
vn 0.8090 0.0000 -0.5879
vn 0.9962 0.0000 -0.0865
vn 0.5641 0.0000 0.8257
vn -0.9841 0.0000 0.1777
vn 0.0854 0.0000 0.9963
vn 0.5165 0.0000 -0.8563
vn 0.8144 0.0000 0.5803
vn 0.0000 0.0000 0.0000
vn 0.0000 1.0000 0.0000
vn 0.0000 1.0000 0.0003
vn -0.8090 0.0000 0.5879
vn 0.0000 1.0000 0.0001
vn 0.9972 0.0000 0.0742
vn -0.0854 0.0000 -0.9963
vn -1.0000 0.0000 0.0000
vn -0.0981 0.0000 0.9952
vn 0.8889 0.0000 -0.4582
vn -0.1975 0.0000 -0.9803
vn -0.5641 0.0000 -0.8257
vn -0.0339 0.0000 -0.9994
vn 0.9381 0.0000 -0.3465
vn 0.0339 0.0000 0.9994
vn 0.4397 0.0000 0.8981
vn -0.5165 0.0000 0.8563
vn -0.9962 0.0000 0.0865
vn -0.3284 0.0000 -0.9446
vn 0.0000 0.0000 -1.0000
vn -0.9709 0.0000 -0.2395
vn 1.0000 0.0000 0.0000
vn -0.9381 0.0000 0.3465
vn 0.1975 0.0000 0.9803
vn 0.9102 0.0000 0.4143
vn 0.9673 0.0000 -0.2537
vn -0.9972 0.0000 -0.0742
vn 0.6866 0.0000 -0.7270
vn -0.8889 0.0000 0.4582
vn 0.0000 0.0000 1.0000
vn -0.6866 0.0000 0.7270
usemtl field
s 1
f 1/1/1 2/2/1 3/3/1
f 1/1/1 3/3/1 4/4/1
f 5/5/1 1/1/1 4/4/1
f 6/6/2 7/7/2 8/8/2 9/9/2
f 4/10/3 3/11/3 10/12/3 11/13/3
f 12/14/4 13/15/4 14/16/4 15/17/4
f 16/18/5 17/19/5 18/20/5 19/21/5
f 20/22/6 21/23/6 22/24/6 23/25/6
f 24/26/7 25/27/7 26/28/7 27/29/7
f 28/30/8 29/31/8 30/32/8 31/33/8
f 32/34/1 33/35/1 34/36/1 35/37/1 36/38/1 37/39/1 13/40/1 12/41/1 21/42/1 20/43/1 7/44/1 6/45/1 38/46/1 5/5/1 4/4/1 39/47/1 40/48/1 41/49/1 42/50/1 43/51/1
f 39/52/9 4/10/9 11/13/9 44/53/9
f 45/54/10 46/55/10 47/56/10 48/57/10
f 34/58/11 33/59/11 49/60/11 50/61/11
f 51/62/12 52/63/12 53/64/12 54/65/12
f 21/66/13 12/14/13 15/17/13 22/67/13
f 42/68/14 41/69/14 55/70/14 56/71/14
f 35/72/15 34/58/15 50/61/15 57/73/15
f 58/74/1 59/75/1 60/76/1 61/77/1
f 62/78/16 24/26/16 27/29/16 63/79/16
f 64/80/17 16/18/17 19/21/17 65/81/17
f 66/82/18 67/83/18 68/84/18 69/85/18
f 40/86/19 39/52/19 44/53/19 70/87/19
f 25/88/20 71/89/20 72/90/20 26/91/20
f 36/92/21 59/93/21 58/94/21 73/95/21
f 74/96/21 61/97/21 60/98/21 35/99/21
f 75/100/22 10/101/22 76/102/23
f 62/103/1 46/104/1 45/105/1 67/106/1 77/107/1 52/108/1 51/109/1 78/110/1 79/111/1 80/112/1 81/113/1 17/114/1 16/115/1 64/116/1 73/117/1 74/118/1 29/119/1 28/120/1 71/121/1 25/122/1 24/123/1
f 82/124/21 83/125/21 84/126/21 85/127/21
f 80/128/24 79/129/24 86/130/24 87/131/24
f 85/132/22 84/126/22 88/133/22 89/134/22
f 90/135/22 91/136/25 69/137/22
f 57/138/21 92/139/21 89/140/21 88/141/21
f 63/142/22 27/143/22 26/144/22 72/145/22 31/146/22 30/147/22 83/148/22 82/149/22 65/150/22 19/151/22 18/152/22 93/153/22 87/154/22 86/155/22 94/156/22 54/157/22 53/158/22 90/135/22 68/159/22 48/160/22 47/161/22
f 29/31/26 74/162/26 83/163/26 30/32/26
f 75/100/22 11/164/22 10/101/22
f 92/139/21 82/124/21 85/127/21 89/140/21
f 1/165/27 5/166/27 95/167/27 75/168/27
f 36/169/28 73/170/28 82/171/28 92/172/28
f 83/125/21 57/138/21 88/141/21 84/126/21
f 95/173/22 11/164/22 75/100/22
f 52/63/29 77/174/29 90/175/29 53/64/29
f 96/176/22 97/177/22 56/178/22 55/179/22 70/180/22 44/181/22 11/164/22 95/173/22 98/182/22 9/183/22 8/184/22 23/185/22 22/186/22 15/187/22 14/188/22 99/189/22 92/190/22 57/191/22 50/192/22 49/193/22
f 90/135/22 69/137/22 68/159/22
f 43/194/30 42/68/30 56/71/30 97/195/30
f 5/166/31 38/196/31 98/197/31 95/167/31
f 7/7/32 20/22/32 23/25/32 8/8/32
f 2/198/33 1/165/33 75/168/33 76/199/33
f 77/107/1 67/106/1 66/200/1
f 77/107/1 66/200/1 100/201/1
f 32/202/34 43/194/34 97/195/34 96/203/34
f 100/204/35 66/82/35 69/85/35 91/205/35
f 35/99/21 60/98/21 59/93/21 36/92/21
f 73/95/21 58/94/21 61/97/21 74/96/21
f 46/55/36 62/78/36 63/79/36 47/56/36
f 78/206/37 51/62/37 54/65/37 94/207/37
f 73/170/38 64/80/38 65/81/38 82/171/38
f 38/196/39 6/6/39 9/9/39 98/197/39
f 3/11/40 2/198/40 76/199/40 10/12/40
f 13/15/41 37/208/41 99/209/41 14/16/41
f 74/162/42 35/72/42 57/73/42 83/163/42
f 17/19/43 81/210/43 93/211/43 18/20/43
f 67/83/44 45/54/44 48/57/44 68/84/44
f 71/89/45 28/30/45 31/33/45 72/90/45
f 33/59/46 32/202/46 96/203/46 49/60/46
f 37/208/47 36/169/47 92/172/47 99/209/47
f 41/69/48 40/212/48 70/213/48 55/70/48
f 81/210/49 80/128/49 87/131/49 93/211/49
f 77/174/50 100/204/50 91/205/50 90/175/50
f 79/129/51 78/214/51 94/215/51 86/130/51
