# Blender v2.77 (sub 0) OBJ File: 'skyboxV4.blend'
# www.blender.org
mtllib skybox.mtl
o Cube_Cube.002
v 4.266904 4.266904 -4.266904
v 4.266904 -4.266904 -4.266904
v 4.266904 4.266904 4.266904
v 4.266904 -4.266904 4.266904
v -4.266904 4.266904 -4.266904
v -4.266904 -4.266904 -4.266904
v -4.266904 4.266904 4.266904
v -4.266904 -4.266904 4.266904
vt 0.9999 0.0001
vt 0.0001 0.9999
vt 0.0001 0.0001
vt 0.9999 0.9999
vt 0.9999 0.0001
vt 0.9999 0.9999
vt 0.0001 0.0001
vt 0.9999 0.0001
vt 0.0001 0.9999
vt 0.0001 0.0001
vt 0.9999 0.9999
vt 0.9999 0.9999
vt 0.0001 0.0001
vt 0.0001 0.9999
vt 0.9999 0.0001
vt 0.0001 0.9999
vt 0.0001 0.0001
vt 0.9999 0.0001
vt 0.0001 0.9999
vt 0.9999 0.9999
vn 0.0000 0.0000 -1.0000
vn 0.0000 -1.0000 0.0000
vn 1.0000 0.0000 0.0000
vn 0.0000 1.0000 0.0000
vn 0.0000 0.0000 1.0000
vn -1.0000 0.0000 0.0000
usemtl skybox
s off
f 8/1/1 3/2/1 4/3/1
f 8/1/1 7/4/1 3/2/1
usemtl skybox
f 3/2/2 5/5/2 1/6/2
f 3/2/2 7/7/2 5/5/2
usemtl skybox
f 6/8/3 7/9/3 8/10/3
f 6/8/3 5/11/3 7/9/3
usemtl skybox
f 8/12/4 2/13/4 6/8/4
f 8/12/4 4/14/4 2/13/4
usemtl skybox
f 2/15/5 5/16/5 6/17/5
f 2/15/5 1/6/5 5/16/5
usemtl skybox
f 4/18/6 1/19/6 2/13/6
f 4/18/6 3/20/6 1/19/6
